<?xml version="1.0" encoding="UTF-8"?>
<svg id="Layer_1" xmlns="http://www.w3.org/2000/svg" version="1.1" viewBox="0 0 1024 1024">
  <!-- Generator: Adobe Illustrator 29.8.1, SVG Export Plug-In . SVG Version: 2.1.1 Build 2)  -->
  <defs>
    <style>
      .st0 {
        fill: #1864ab;
      }
    </style>
  </defs>
  <path class="st0" d="M880.47,511.99c0,139.83-113.36,253.2-253.2,253.2-5.4,0-10.77-.16-16.1-.49v.49h-115.24v-332.92h115.24v229.26c1.7.07,3.4.11,5.11.11,82.66,0,149.65-67,149.65-149.65,0-29.32-8.43-56.65-23-79.72-24.21-38.39-65.39-65.01-113.03-69.3-4.49-.42-9.02-.62-13.62-.62-1.72,0-3.41.04-5.11.11-2.85.07-5.7.26-8.51.51h-175.3v402.21h-115.24v-402.21h-168.58v-104.16h467.64v.49c5.33-.33,10.7-.49,16.1-.49,111.98,0,206.97,72.69,240.38,173.46,8.32,25.06,12.82,51.86,12.82,79.72h0Z"/>
</svg>